HIERARCHY
ROOT Hips
{
	OFFSET 0.000000 0.000000 0.000000
	CHANNELS 6 Xposition Yposition Zposition Zrotation Yrotation Xrotation 
	JOINT LeftUpLeg_virtual
	{
		OFFSET 0.000000 0.000000 0.000000
		CHANNELS 3 Zrotation Yrotation Xrotation
		JOINT LeftUpLeg
		{
			OFFSET 8.479694 -4.795517 -0.379053
			CHANNELS 3 Zrotation Yrotation Xrotation
			JOINT LeftLeg
			{
				OFFSET 0.485052 -32.551468 0.112863
				CHANNELS 3 Zrotation Yrotation Xrotation
				JOINT LeftFoot
				{
					OFFSET 0.438033 -32.635670 -3.012641
					CHANNELS 3 Zrotation Yrotation Xrotation
					JOINT LeftToeBase
					{
						OFFSET 0.970169 -13.225353 11.864223
						CHANNELS 3 Zrotation Yrotation Xrotation
						End Site
						{
							OFFSET 0.000000 0.000000 0.000000
						}
					}
				}
			}
		}
	}
	JOINT RightUpLeg_virtual
	{
		OFFSET 0.000000 0.000000 0.000000
		CHANNELS 3 Zrotation Yrotation Xrotation
		JOINT RightUpLeg
		{
			OFFSET -8.479694 -4.795517 -0.379053
			CHANNELS 3 Zrotation Yrotation Xrotation
			JOINT RightLeg
			{
				OFFSET -0.484100 -32.551483 0.112903
				CHANNELS 3 Zrotation Yrotation Xrotation
				JOINT RightFoot
				{
					OFFSET -0.438985 -32.635651 -3.012681
					CHANNELS 3 Zrotation Yrotation Xrotation
					JOINT RightToeBase
					{
						OFFSET -0.970169 -13.225354 11.864223
						CHANNELS 3 Zrotation Yrotation Xrotation
						End Site
						{
							OFFSET 0.000000 0.000000 0.000000
						}
					}
				}
			}
		}
	}
	JOINT Spine_virtual
	{
		OFFSET 0.000000 0.000000 0.000000
		CHANNELS 3 Zrotation Yrotation Xrotation
		JOINT Spine
		{
			OFFSET 0.000000 7.722015 1.166203
			CHANNELS 3 Zrotation Yrotation Xrotation
			JOINT Spine1
			{
				OFFSET 0.000000 12.024086 0.248766
				CHANNELS 3 Zrotation Yrotation Xrotation
				JOINT Spine2
				{
					OFFSET -0.000000 11.503036 -0.491240
					CHANNELS 3 Zrotation Yrotation Xrotation
					JOINT Neck_virtual
					{
						OFFSET 0.000000 0.000000 0.000000
						CHANNELS 3 Zrotation Yrotation Xrotation
						JOINT Neck
						{
							OFFSET 0.000000 18.430687 -3.123054
							CHANNELS 3 Zrotation Yrotation Xrotation
							JOINT Head
							{
								OFFSET -0.000000 9.051071 1.034021
								CHANNELS 3 Zrotation Yrotation Xrotation
								End Site
								{
									OFFSET 0.000000 0.000000 0.000000
								}
							}
						}
					}
					JOINT LeftShoulder_virtual
					{
						OFFSET 0.000000 0.000000 0.000000
						CHANNELS 3 Zrotation Yrotation Xrotation
						JOINT LeftShoulder
						{
							OFFSET 6.197824 13.665230 -4.064723
							CHANNELS 3 Zrotation Yrotation Xrotation
							JOINT LeftArm
							{
								OFFSET 7.778132 -0.187073 -1.709282
								CHANNELS 3 Zrotation Yrotation Xrotation
								JOINT LeftForeArm
								{
									OFFSET 21.954697 0.000000 -2.041093
									CHANNELS 3 Zrotation Yrotation Xrotation
									JOINT LeftHand
									{
										OFFSET 22.992908 0.000000 -0.870901
										CHANNELS 3 Zrotation Yrotation Xrotation
										End Site
										{
											OFFSET 0.000000 0.000000 0.000000
										}
									}
								}
							}
						}
					}
					JOINT RightShoulder_virtual
					{
						OFFSET 0.000000 0.000000 0.000000
						CHANNELS 3 Zrotation Yrotation Xrotation
						JOINT RightShoulder
						{
							OFFSET -6.197824 13.665230 -4.064723
							CHANNELS 3 Zrotation Yrotation Xrotation
							JOINT RightArm
							{
								OFFSET -7.778132 -0.187073 -1.709282
								CHANNELS 3 Zrotation Yrotation Xrotation
								JOINT RightForeArm
								{
									OFFSET -21.954697 0.000000 -2.041093
									CHANNELS 3 Zrotation Yrotation Xrotation
									JOINT RightHand
									{
										OFFSET -22.992908 0.000000 -0.870901
										CHANNELS 3 Zrotation Yrotation Xrotation
										End Site
										{
											OFFSET 0.000000 0.000000 0.000000
										}
									}
								}
							}
						}
					}
				}
			}
		}
	}
}
MOTION
Frames: 4
Frame Time: 0.033333
16.262075 79.327316 -54.583954 179.805208 -3.560049 -179.998885 -0.831160 0.059225 9.650721 3.031811 -9.501391 -33.419685 7.297390 7.840776 30.286794 -2.896219 0.056777 -11.157080 0.000000 0.000000 0.000000 3.624246 -0.664039 9.508042 -0.999419 5.394592 -28.457544 1.347796 6.078165 32.450963 12.271579 8.987857 -10.519768 0.000000 0.000000 0.000000 4.075721 2.714499 -5.004328 -1.800536 -3.359340 -6.792093 -1.722743 -1.770965 11.969550 0.005177 0.075249 -0.004851 -1.973876 -0.032057 12.404382 -0.139648 -2.853616 -1.698784 0.000000 0.000000 0.000000 -0.295643 0.451094 9.621950 -11.505757 -8.214303 1.976443 -60.229960 -2.640057 14.062282 1.350603 -19.986983 4.125441 0.000000 0.000000 0.000000 -4.788698 1.974381 8.809787 28.911289 3.886129 8.783913 49.027935 7.558406 6.539054 -6.618316 21.573750 -3.396647 0.000000 0.000000 0.000000 
16.282103 79.334297 -54.538219 179.613334 -3.627443 179.992861 -0.735120 -0.041405 9.553848 3.015286 -9.515037 -33.306168 7.555292 7.898099 30.616016 -2.602350 0.362294 -11.158616 0.000000 0.000000 0.000000 3.866375 -0.604007 9.462041 -0.730646 5.350429 -28.298599 1.533179 5.819974 32.573326 12.602873 9.216050 -9.904912 0.000000 0.000000 0.000000 4.025970 2.681157 -5.158264 -1.939657 -3.367286 -6.685513 -1.613846 -1.755450 11.936128 0.036910 0.096157 0.031991 -2.098238 -0.067804 12.401209 -0.120320 -2.847066 -1.705943 0.000000 0.000000 0.000000 -0.423837 0.369370 9.545887 -11.475519 -8.209737 1.945012 -60.051296 -2.513656 14.021355 1.449885 -20.111803 4.109675 0.000000 0.000000 0.000000 -4.872946 1.874521 8.833595 28.911460 3.699966 8.729874 48.890620 7.345921 5.244480 -6.674514 21.628209 -3.577835 0.000000 0.000000 0.000000 
16.301884 79.334854 -54.469498 179.633579 -3.632021 -179.966373 -0.646692 -0.104677 9.405869 2.917883 -9.468777 -33.228269 7.577609 7.932079 30.563433 -2.601298 0.340904 -11.064354 0.000000 0.000000 0.000000 3.911653 -0.682430 9.291647 -0.757447 5.408709 -28.191386 1.522058 5.859167 32.471901 12.639246 9.198606 -9.904848 0.000000 0.000000 0.000000 4.189823 2.631058 -5.315173 -1.987513 -3.392188 -6.702911 -1.730980 -1.727284 12.023563 0.057170 0.099829 -0.038410 -2.037360 -0.070482 12.360893 -0.215079 -2.801662 -1.720999 0.000000 0.000000 0.000000 -0.371343 0.414600 9.568178 -11.338176 -8.210595 1.929607 -59.797029 -2.360106 13.947848 1.371893 -20.281919 4.224300 0.000000 0.000000 0.000000 -4.803375 1.884752 8.853042 29.087003 3.356916 8.717023 48.796695 6.974690 3.279573 -6.748086 21.753215 -3.754527 0.000000 0.000000 0.000000 
16.322512 79.340233 -54.383545 179.637568 -3.567248 -179.993393 -0.551268 -0.111115 9.311768 2.778826 -9.379305 -33.140925 7.602845 7.957944 30.522152 -2.631784 0.309637 -10.917215 0.000000 0.000000 0.000000 3.971800 -0.708468 9.157948 -0.822846 5.500421 -28.081203 1.504871 5.902315 32.417089 12.702536 9.165722 -9.874171 0.000000 0.000000 0.000000 4.282152 2.630948 -5.391685 -2.002632 -3.479867 -6.571820 -1.717399 -1.780976 11.933064 0.040761 0.065729 -0.012158 -2.038017 -0.183470 12.347823 -0.231707 -2.830202 -1.806251 0.000000 0.000000 0.000000 -0.371236 0.418346 9.533972 -11.311177 -8.176897 1.988580 -59.461366 -2.185002 13.986413 1.235771 -20.616957 4.364808 0.000000 0.000000 0.000000 -4.812302 1.934831 8.842564 29.307567 3.206078 8.686848 48.735900 6.568082 1.328531 -6.829811 21.877024 -4.002534 0.000000 0.000000 0.000000 
